<svg width="20" height="20" viewBox="0 0 20 20" fill="none" xmlns="http://www.w3.org/2000/svg">
<path d="M11.8 18.55H8.2C4.8061 18.55 3.1087 18.55 2.0548 17.4952C1.0009 16.4404 1 14.7439 1 11.35V9.55C1 6.1561 1 4.4587 2.0548 3.4048C3.1096 2.3509 4.8061 2.35 8.2 2.35H11.8C15.1939 2.35 16.8913 2.35 17.9452 3.4048C18.9991 4.4596 19 6.1561 19 9.55V11.35C19 14.7439 19 16.4413 17.9452 17.4952C17.3575 18.0838 16.57 18.3439 15.4 18.4582M5.5 2.35V1M14.5 2.35V1M18.55 6.85H8.875M1 6.85H4.4875" stroke="#090404" stroke-linecap="round"/>
<path d="M15.4 14.05C15.4 14.2887 15.3052 14.5177 15.1364 14.6864C14.9676 14.8552 14.7387 14.95 14.5 14.95C14.2613 14.95 14.0324 14.8552 13.8636 14.6864C13.6948 14.5177 13.6 14.2887 13.6 14.05C13.6 13.8114 13.6948 13.5824 13.8636 13.4137C14.0324 13.2449 14.2613 13.15 14.5 13.15C14.7387 13.15 14.9676 13.2449 15.1364 13.4137C15.3052 13.5824 15.4 13.8114 15.4 14.05ZM15.4 10.45C15.4 10.6887 15.3052 10.9177 15.1364 11.0864C14.9676 11.2552 14.7387 11.35 14.5 11.35C14.2613 11.35 14.0324 11.2552 13.8636 11.0864C13.6948 10.9177 13.6 10.6887 13.6 10.45C13.6 10.2114 13.6948 9.98244 13.8636 9.81365C14.0324 9.64487 14.2613 9.55005 14.5 9.55005C14.7387 9.55005 14.9676 9.64487 15.1364 9.81365C15.3052 9.98244 15.4 10.2114 15.4 10.45ZM10.9 14.05C10.9 14.2887 10.8052 14.5177 10.6364 14.6864C10.4676 14.8552 10.2387 14.95 9.99998 14.95C9.76128 14.95 9.53236 14.8552 9.36358 14.6864C9.1948 14.5177 9.09998 14.2887 9.09998 14.05C9.09998 13.8114 9.1948 13.5824 9.36358 13.4137C9.53236 13.2449 9.76128 13.15 9.99998 13.15C10.2387 13.15 10.4676 13.2449 10.6364 13.4137C10.8052 13.5824 10.9 13.8114 10.9 14.05ZM10.9 10.45C10.9 10.6887 10.8052 10.9177 10.6364 11.0864C10.4676 11.2552 10.2387 11.35 9.99998 11.35C9.76128 11.35 9.53236 11.2552 9.36358 11.0864C9.1948 10.9177 9.09998 10.6887 9.09998 10.45C9.09998 10.2114 9.1948 9.98244 9.36358 9.81365C9.53236 9.64487 9.76128 9.55005 9.99998 9.55005C10.2387 9.55005 10.4676 9.64487 10.6364 9.81365C10.8052 9.98244 10.9 10.2114 10.9 10.45ZM6.39998 14.05C6.39998 14.2887 6.30515 14.5177 6.13637 14.6864C5.96759 14.8552 5.73867 14.95 5.49998 14.95C5.26128 14.95 5.03236 14.8552 4.86358 14.6864C4.6948 14.5177 4.59998 14.2887 4.59998 14.05C4.59998 13.8114 4.6948 13.5824 4.86358 13.4137C5.03236 13.2449 5.26128 13.15 5.49998 13.15C5.73867 13.15 5.96759 13.2449 6.13637 13.4137C6.30515 13.5824 6.39998 13.8114 6.39998 14.05ZM6.39998 10.45C6.39998 10.6887 6.30515 10.9177 6.13637 11.0864C5.96759 11.2552 5.73867 11.35 5.49998 11.35C5.26128 11.35 5.03236 11.2552 4.86358 11.0864C4.6948 10.9177 4.59998 10.6887 4.59998 10.45C4.59998 10.2114 4.6948 9.98244 4.86358 9.81365C5.03236 9.64487 5.26128 9.55005 5.49998 9.55005C5.73867 9.55005 5.96759 9.64487 6.13637 9.81365C6.30515 9.98244 6.39998 10.2114 6.39998 10.45Z" fill="#99979A"/>
</svg>
