<svg width="23" height="30" viewBox="0 0 23 30" fill="none" xmlns="http://www.w3.org/2000/svg">
<path d="M0.598637 8.37724C0.708008 8.03868 0.831922 7.70552 0.970015 7.37867L7.37867 0.970015C7.70552 0.831922 8.03868 0.708007 8.37724 0.598636L0.598637 8.37724Z" fill="url(#paint0_linear_15_1372)"/>
<path d="M0.186163 10.044C0.232744 9.77748 0.287927 9.51315 0.351555 9.25146L9.25146 0.351554C9.51316 0.287926 9.77748 0.232743 10.044 0.186163L0.186163 10.044Z" fill="url(#paint1_linear_15_1372)"/>
<path d="M0.0214152 11.4632C0.0348505 11.2333 0.0545745 11.0045 0.0804941 10.7769L10.7769 0.080494C11.0045 0.0545738 11.2333 0.034851 11.4632 0.0214151L0.0214152 11.4632Z" fill="url(#paint2_linear_15_1372)"/>
<path d="M0.0111046 12.7278C0.00680703 12.6252 0.00375116 12.5225 0.00194719 12.4196C0.000142026 12.3168 -0.000405864 12.214 0.00029455 12.1114L12.1114 0.000294449C12.214 -0.000405965 12.3168 0.000142523 12.4196 0.00194709C12.5225 0.00375106 12.6252 0.00680633 12.7278 0.0111039L0.0111046 12.7278Z" fill="url(#paint3_linear_15_1372)"/>
<path d="M0.112138 13.8812C0.0870962 13.6937 0.0661933 13.5055 0.0494844 13.3167L13.3167 0.0494831C13.5055 0.066192 13.6937 0.0870968 13.8812 0.112139L0.112138 13.8812Z" fill="url(#paint4_linear_15_1372)"/>
<path d="M0.300554 14.9472C0.262282 14.7736 0.227585 14.5992 0.196508 14.4241L14.4241 0.196507C14.5992 0.227584 14.7736 0.262282 14.9472 0.300553L0.300554 14.9472Z" fill="url(#paint5_linear_15_1372)"/>
<path d="M0.56136 15.9407C0.511935 15.7788 0.465672 15.616 0.422612 15.4523L15.4523 0.422611C15.616 0.465671 15.7788 0.511934 15.9407 0.561358L0.56136 15.9407Z" fill="url(#paint6_linear_15_1372)"/>
<path d="M0.884619 16.8719C0.825445 16.7202 0.769121 16.5674 0.715685 16.4136L16.4136 0.715684C16.5674 0.769121 16.7202 0.825444 16.8719 0.884618L0.884619 16.8719Z" fill="url(#paint7_linear_15_1372)"/>
<path d="M1.26336 17.7475C1.19542 17.6049 1.13009 17.4611 1.0674 17.3163L17.3163 1.0674C17.4611 1.13009 17.6049 1.19542 17.7475 1.26336L1.26336 17.7475Z" fill="url(#paint8_linear_15_1372)"/>
<path d="M1.69268 18.5725C1.61667 18.4383 1.54308 18.3028 1.47193 18.1661L18.1661 1.47193C18.3028 1.54308 18.4383 1.61667 18.5725 1.69268L1.69268 18.5725Z" fill="url(#paint9_linear_15_1372)"/>
<path d="M2.16914 19.3505C2.08556 19.224 2.00424 19.0963 1.9252 18.9673L18.9673 1.9252C19.0963 2.00424 19.224 2.08556 19.3505 2.16914L2.16914 19.3505Z" fill="url(#paint10_linear_15_1372)"/>
<path d="M2.69024 20.0837C2.59943 19.9647 2.51074 19.8443 2.42421 19.7226L19.7226 2.42421C19.8443 2.51074 19.9647 2.59942 20.0837 2.69024L2.69024 20.0837Z" fill="url(#paint11_linear_15_1372)"/>
<path d="M3.25445 20.7739C3.15662 20.6621 3.06081 20.5488 2.96705 20.4342L20.4342 2.96705C20.5488 3.06081 20.6621 3.15662 20.7739 3.25445L3.25445 20.7739Z" fill="url(#paint12_linear_15_1372)"/>
<path d="M3.86075 21.422C3.75602 21.3173 3.65322 21.211 3.55237 21.1032L21.1032 3.55237C21.211 3.65322 21.3173 3.75602 21.422 3.86075L3.86075 21.422Z" fill="url(#paint13_linear_15_1372)"/>
<path d="M6.14678 1.57472L1.57472 6.14678C2.10738 5.20125 2.76835 4.32596 3.54716 3.54716C4.32596 2.76835 5.20125 2.10738 6.14678 1.57472Z" fill="url(#paint14_linear_15_1372)"/>
<path d="M22.4013 21.0455C22.2919 21.3841 22.168 21.7172 22.0299 22.0441L15.6212 28.4527C15.2944 28.5908 14.9612 28.7147 14.6227 28.8241L22.4013 21.0455Z" fill="url(#paint15_linear_15_1372)"/>
<path d="M22.8137 19.3787C22.7672 19.6453 22.712 19.9096 22.6483 20.1713L13.7484 29.0712C13.4867 29.1348 13.2224 29.19 12.9559 29.2366L22.8137 19.3787Z" fill="url(#paint16_linear_15_1372)"/>
<path d="M22.9785 17.9595C22.965 18.1895 22.9453 18.4183 22.9194 18.6458L12.223 29.3423C11.9954 29.3682 11.7666 29.3879 11.5367 29.4013L22.9785 17.9595Z" fill="url(#paint17_linear_15_1372)"/>
<path d="M22.9888 16.6949C22.9931 16.7975 22.9961 16.9003 22.998 17.0031C22.9998 17.106 23.0003 17.2087 22.9996 17.3113L10.8885 29.4225C10.7859 29.4232 10.6831 29.4226 10.5803 29.4208C10.4774 29.419 10.3747 29.4159 10.2721 29.4116L22.9888 16.6949Z" fill="url(#paint18_linear_15_1372)"/>
<path d="M22.8878 15.5415C22.9128 15.729 22.9337 15.9172 22.9504 16.106L9.68319 29.3733C9.4944 29.3566 9.30617 29.3357 9.11866 29.3106L22.8878 15.5415Z" fill="url(#paint19_linear_15_1372)"/>
<path d="M22.6993 14.4755C22.7376 14.6491 22.7723 14.8235 22.8034 14.9987L8.57584 29.2262C8.40069 29.1952 8.22627 29.1605 8.0527 29.1222L22.6993 14.4755Z" fill="url(#paint20_linear_15_1372)"/>
<path d="M22.4385 13.482C22.488 13.6439 22.5342 13.8068 22.5773 13.9705L7.54764 29.0001C7.38393 28.9571 7.22109 28.9108 7.0592 28.8614L22.4385 13.482Z" fill="url(#paint21_linear_15_1372)"/>
<path d="M22.1153 12.5509C22.1745 12.7026 22.2308 12.8554 22.2842 13.0091L6.58626 28.7071C6.43251 28.6536 6.27973 28.5973 6.12801 28.5381L22.1153 12.5509Z" fill="url(#paint22_linear_15_1372)"/>
<path d="M21.7365 11.6752C21.8045 11.8178 21.8698 11.9616 21.9325 12.1064L5.6836 28.3554C5.53877 28.2927 5.395 28.2273 5.25237 28.1594L21.7365 11.6752Z" fill="url(#paint23_linear_15_1372)"/>
<path d="M21.3072 10.8502C21.3832 10.9845 21.4568 11.12 21.528 11.2566L4.8338 27.9508C4.69714 27.8797 4.56164 27.8061 4.42735 27.7301L21.3072 10.8502Z" fill="url(#paint24_linear_15_1372)"/>
<path d="M20.8308 10.0722C20.9143 10.1987 20.9957 10.3265 21.0747 10.4555L4.03265 27.4976C3.90364 27.4185 3.77587 27.3372 3.6494 27.2536L20.8308 10.0722Z" fill="url(#paint25_linear_15_1372)"/>
<path d="M20.3097 9.33904C20.4005 9.45806 20.4892 9.57847 20.5757 9.7002L3.27735 26.9985C3.15562 26.912 3.03521 26.8233 2.91618 26.7325L20.3097 9.33904Z" fill="url(#paint26_linear_15_1372)"/>
<path d="M19.7455 8.64881C19.8433 8.76062 19.9391 8.8739 20.0329 8.98859L2.56574 26.4557C2.45105 26.3619 2.33777 26.2661 2.22596 26.1683L19.7455 8.64881Z" fill="url(#paint27_linear_15_1372)"/>
<path d="M1.89669 25.8704C1.7889 25.7695 1.68261 25.6667 1.57788 25.562L19.1392 8.00073C19.2439 8.10546 19.3467 8.21175 19.4475 8.31954L1.89669 25.8704Z" fill="url(#paint28_linear_15_1372)"/>
<path d="M16.8531 27.848L21.4252 23.276C20.8925 24.2215 20.2315 25.0968 19.4527 25.8756C18.6739 26.6544 17.7986 27.3154 16.8531 27.848Z" fill="url(#paint29_linear_15_1372)"/>
<defs>
<linearGradient id="paint0_linear_15_1372" x1="10.711" y1="0" x2="10.711" y2="21.422" gradientUnits="userSpaceOnUse">
<stop stop-color="#03001E"/>
<stop offset="0.32" stop-color="#7303C0"/>
<stop offset="0.645" stop-color="#EC38BC"/>
<stop offset="0.975" stop-color="#FDEFF9"/>
</linearGradient>
<linearGradient id="paint1_linear_15_1372" x1="10.711" y1="0" x2="10.711" y2="21.422" gradientUnits="userSpaceOnUse">
<stop stop-color="#03001E"/>
<stop offset="0.32" stop-color="#7303C0"/>
<stop offset="0.645" stop-color="#EC38BC"/>
<stop offset="0.975" stop-color="#FDEFF9"/>
</linearGradient>
<linearGradient id="paint2_linear_15_1372" x1="10.711" y1="0" x2="10.711" y2="21.422" gradientUnits="userSpaceOnUse">
<stop stop-color="#03001E"/>
<stop offset="0.32" stop-color="#7303C0"/>
<stop offset="0.645" stop-color="#EC38BC"/>
<stop offset="0.975" stop-color="#FDEFF9"/>
</linearGradient>
<linearGradient id="paint3_linear_15_1372" x1="10.711" y1="0" x2="10.711" y2="21.422" gradientUnits="userSpaceOnUse">
<stop stop-color="#03001E"/>
<stop offset="0.32" stop-color="#7303C0"/>
<stop offset="0.645" stop-color="#EC38BC"/>
<stop offset="0.975" stop-color="#FDEFF9"/>
</linearGradient>
<linearGradient id="paint4_linear_15_1372" x1="10.711" y1="0" x2="10.711" y2="21.422" gradientUnits="userSpaceOnUse">
<stop stop-color="#03001E"/>
<stop offset="0.32" stop-color="#7303C0"/>
<stop offset="0.645" stop-color="#EC38BC"/>
<stop offset="0.975" stop-color="#FDEFF9"/>
</linearGradient>
<linearGradient id="paint5_linear_15_1372" x1="10.711" y1="0" x2="10.711" y2="21.422" gradientUnits="userSpaceOnUse">
<stop stop-color="#03001E"/>
<stop offset="0.32" stop-color="#7303C0"/>
<stop offset="0.645" stop-color="#EC38BC"/>
<stop offset="0.975" stop-color="#FDEFF9"/>
</linearGradient>
<linearGradient id="paint6_linear_15_1372" x1="10.711" y1="0" x2="10.711" y2="21.422" gradientUnits="userSpaceOnUse">
<stop stop-color="#03001E"/>
<stop offset="0.32" stop-color="#7303C0"/>
<stop offset="0.645" stop-color="#EC38BC"/>
<stop offset="0.975" stop-color="#FDEFF9"/>
</linearGradient>
<linearGradient id="paint7_linear_15_1372" x1="10.711" y1="0" x2="10.711" y2="21.422" gradientUnits="userSpaceOnUse">
<stop stop-color="#03001E"/>
<stop offset="0.32" stop-color="#7303C0"/>
<stop offset="0.645" stop-color="#EC38BC"/>
<stop offset="0.975" stop-color="#FDEFF9"/>
</linearGradient>
<linearGradient id="paint8_linear_15_1372" x1="10.711" y1="0" x2="10.711" y2="21.422" gradientUnits="userSpaceOnUse">
<stop stop-color="#03001E"/>
<stop offset="0.32" stop-color="#7303C0"/>
<stop offset="0.645" stop-color="#EC38BC"/>
<stop offset="0.975" stop-color="#FDEFF9"/>
</linearGradient>
<linearGradient id="paint9_linear_15_1372" x1="10.711" y1="0" x2="10.711" y2="21.422" gradientUnits="userSpaceOnUse">
<stop stop-color="#03001E"/>
<stop offset="0.32" stop-color="#7303C0"/>
<stop offset="0.645" stop-color="#EC38BC"/>
<stop offset="0.975" stop-color="#FDEFF9"/>
</linearGradient>
<linearGradient id="paint10_linear_15_1372" x1="10.711" y1="0" x2="10.711" y2="21.422" gradientUnits="userSpaceOnUse">
<stop stop-color="#03001E"/>
<stop offset="0.32" stop-color="#7303C0"/>
<stop offset="0.645" stop-color="#EC38BC"/>
<stop offset="0.975" stop-color="#FDEFF9"/>
</linearGradient>
<linearGradient id="paint11_linear_15_1372" x1="10.711" y1="0" x2="10.711" y2="21.422" gradientUnits="userSpaceOnUse">
<stop stop-color="#03001E"/>
<stop offset="0.32" stop-color="#7303C0"/>
<stop offset="0.645" stop-color="#EC38BC"/>
<stop offset="0.975" stop-color="#FDEFF9"/>
</linearGradient>
<linearGradient id="paint12_linear_15_1372" x1="10.711" y1="0" x2="10.711" y2="21.422" gradientUnits="userSpaceOnUse">
<stop stop-color="#03001E"/>
<stop offset="0.32" stop-color="#7303C0"/>
<stop offset="0.645" stop-color="#EC38BC"/>
<stop offset="0.975" stop-color="#FDEFF9"/>
</linearGradient>
<linearGradient id="paint13_linear_15_1372" x1="10.711" y1="0" x2="10.711" y2="21.422" gradientUnits="userSpaceOnUse">
<stop stop-color="#03001E"/>
<stop offset="0.32" stop-color="#7303C0"/>
<stop offset="0.645" stop-color="#EC38BC"/>
<stop offset="0.975" stop-color="#FDEFF9"/>
</linearGradient>
<linearGradient id="paint14_linear_15_1372" x1="10.711" y1="0" x2="10.711" y2="21.422" gradientUnits="userSpaceOnUse">
<stop stop-color="#03001E"/>
<stop offset="0.32" stop-color="#7303C0"/>
<stop offset="0.645" stop-color="#EC38BC"/>
<stop offset="0.975" stop-color="#FDEFF9"/>
</linearGradient>
<linearGradient id="paint15_linear_15_1372" x1="12.2889" y1="8.00073" x2="12.2889" y2="29.4228" gradientUnits="userSpaceOnUse">
<stop stop-color="#03001E"/>
<stop offset="0.32" stop-color="#7303C0"/>
<stop offset="0.645" stop-color="#EC38BC"/>
<stop offset="0.975" stop-color="#FDEFF9"/>
</linearGradient>
<linearGradient id="paint16_linear_15_1372" x1="12.2889" y1="8.00073" x2="12.2889" y2="29.4228" gradientUnits="userSpaceOnUse">
<stop stop-color="#03001E"/>
<stop offset="0.32" stop-color="#7303C0"/>
<stop offset="0.645" stop-color="#EC38BC"/>
<stop offset="0.975" stop-color="#FDEFF9"/>
</linearGradient>
<linearGradient id="paint17_linear_15_1372" x1="12.2889" y1="8.00073" x2="12.2889" y2="29.4228" gradientUnits="userSpaceOnUse">
<stop stop-color="#03001E"/>
<stop offset="0.32" stop-color="#7303C0"/>
<stop offset="0.645" stop-color="#EC38BC"/>
<stop offset="0.975" stop-color="#FDEFF9"/>
</linearGradient>
<linearGradient id="paint18_linear_15_1372" x1="12.2889" y1="8.00073" x2="12.2889" y2="29.4228" gradientUnits="userSpaceOnUse">
<stop stop-color="#03001E"/>
<stop offset="0.32" stop-color="#7303C0"/>
<stop offset="0.645" stop-color="#EC38BC"/>
<stop offset="0.975" stop-color="#FDEFF9"/>
</linearGradient>
<linearGradient id="paint19_linear_15_1372" x1="12.2889" y1="8.00073" x2="12.2889" y2="29.4228" gradientUnits="userSpaceOnUse">
<stop stop-color="#03001E"/>
<stop offset="0.32" stop-color="#7303C0"/>
<stop offset="0.645" stop-color="#EC38BC"/>
<stop offset="0.975" stop-color="#FDEFF9"/>
</linearGradient>
<linearGradient id="paint20_linear_15_1372" x1="12.2889" y1="8.00073" x2="12.2889" y2="29.4228" gradientUnits="userSpaceOnUse">
<stop stop-color="#03001E"/>
<stop offset="0.32" stop-color="#7303C0"/>
<stop offset="0.645" stop-color="#EC38BC"/>
<stop offset="0.975" stop-color="#FDEFF9"/>
</linearGradient>
<linearGradient id="paint21_linear_15_1372" x1="12.2889" y1="8.00073" x2="12.2889" y2="29.4228" gradientUnits="userSpaceOnUse">
<stop stop-color="#03001E"/>
<stop offset="0.32" stop-color="#7303C0"/>
<stop offset="0.645" stop-color="#EC38BC"/>
<stop offset="0.975" stop-color="#FDEFF9"/>
</linearGradient>
<linearGradient id="paint22_linear_15_1372" x1="12.2889" y1="8.00073" x2="12.2889" y2="29.4228" gradientUnits="userSpaceOnUse">
<stop stop-color="#03001E"/>
<stop offset="0.32" stop-color="#7303C0"/>
<stop offset="0.645" stop-color="#EC38BC"/>
<stop offset="0.975" stop-color="#FDEFF9"/>
</linearGradient>
<linearGradient id="paint23_linear_15_1372" x1="12.2889" y1="8.00073" x2="12.2889" y2="29.4228" gradientUnits="userSpaceOnUse">
<stop stop-color="#03001E"/>
<stop offset="0.32" stop-color="#7303C0"/>
<stop offset="0.645" stop-color="#EC38BC"/>
<stop offset="0.975" stop-color="#FDEFF9"/>
</linearGradient>
<linearGradient id="paint24_linear_15_1372" x1="12.2889" y1="8.00073" x2="12.2889" y2="29.4228" gradientUnits="userSpaceOnUse">
<stop stop-color="#03001E"/>
<stop offset="0.32" stop-color="#7303C0"/>
<stop offset="0.645" stop-color="#EC38BC"/>
<stop offset="0.975" stop-color="#FDEFF9"/>
</linearGradient>
<linearGradient id="paint25_linear_15_1372" x1="12.2889" y1="8.00073" x2="12.2889" y2="29.4228" gradientUnits="userSpaceOnUse">
<stop stop-color="#03001E"/>
<stop offset="0.32" stop-color="#7303C0"/>
<stop offset="0.645" stop-color="#EC38BC"/>
<stop offset="0.975" stop-color="#FDEFF9"/>
</linearGradient>
<linearGradient id="paint26_linear_15_1372" x1="12.2889" y1="8.00073" x2="12.2889" y2="29.4228" gradientUnits="userSpaceOnUse">
<stop stop-color="#03001E"/>
<stop offset="0.32" stop-color="#7303C0"/>
<stop offset="0.645" stop-color="#EC38BC"/>
<stop offset="0.975" stop-color="#FDEFF9"/>
</linearGradient>
<linearGradient id="paint27_linear_15_1372" x1="12.2889" y1="8.00073" x2="12.2889" y2="29.4228" gradientUnits="userSpaceOnUse">
<stop stop-color="#03001E"/>
<stop offset="0.32" stop-color="#7303C0"/>
<stop offset="0.645" stop-color="#EC38BC"/>
<stop offset="0.975" stop-color="#FDEFF9"/>
</linearGradient>
<linearGradient id="paint28_linear_15_1372" x1="12.2889" y1="8.00073" x2="12.2889" y2="29.4228" gradientUnits="userSpaceOnUse">
<stop stop-color="#03001E"/>
<stop offset="0.32" stop-color="#7303C0"/>
<stop offset="0.645" stop-color="#EC38BC"/>
<stop offset="0.975" stop-color="#FDEFF9"/>
</linearGradient>
<linearGradient id="paint29_linear_15_1372" x1="12.2889" y1="8.00073" x2="12.2889" y2="29.4228" gradientUnits="userSpaceOnUse">
<stop stop-color="#03001E"/>
<stop offset="0.32" stop-color="#7303C0"/>
<stop offset="0.645" stop-color="#EC38BC"/>
<stop offset="0.975" stop-color="#FDEFF9"/>
</linearGradient>
</defs>
</svg>
