<svg width="20" height="31" viewBox="0 0 20 31" fill="none" xmlns="http://www.w3.org/2000/svg">
<path d="M1 6.15295C1 4.34942 1 3.44765 1.327 2.75845C1.61462 2.15248 2.07354 1.65981 2.638 1.35104C3.28 1 4.12 1 5.8 1H14.2C15.88 1 16.72 1 17.362 1.35104C17.9265 1.65981 18.3854 2.15248 18.673 2.75845C19 3.44765 19 4.34942 19 6.15295V27.578C19 28.3606 19 28.7519 18.8485 28.966C18.783 29.0592 18.6995 29.1359 18.6037 29.191C18.5078 29.246 18.402 29.2781 18.2935 29.2849C18.043 29.301 17.74 29.0836 17.134 28.6504L10 23.5442L2.866 28.6488C2.26 29.0836 1.957 29.301 1.705 29.2849C1.59675 29.2779 1.49121 29.2457 1.39566 29.1907C1.3001 29.1356 1.2168 29.059 1.1515 28.966C1 28.7519 1 28.3606 1 27.578V6.15295Z" stroke="#090404" stroke-width="1.5" stroke-linecap="round" stroke-linejoin="round"/>
</svg>
