<svg width="18" height="21" viewBox="0 0 18 21" fill="none" xmlns="http://www.w3.org/2000/svg">
<path d="M14.0742 9.1875C14.4414 9.29688 14.791 9.44531 15.123 9.63281C15.4551 9.82031 15.8027 10.1055 16.166 10.4883C16.5293 10.8711 16.8398 11.3223 17.0977 11.8418C17.3555 12.3613 17.5703 13.0332 17.7422 13.8574C17.9141 14.6816 18 15.6055 18 16.6289C18 17.832 17.6094 18.8613 16.8281 19.7168C16.0469 20.5723 15.1055 21 14.0039 21H3.99609C2.89453 21 1.95312 20.5723 1.17188 19.7168C0.390625 18.8613 0 17.832 0 16.6289C0 15.6055 0.0859375 14.6816 0.257812 13.8574C0.429688 13.0332 0.644531 12.3613 0.902344 11.8418C1.16016 11.3223 1.4707 10.8711 1.83398 10.4883C2.19727 10.1055 2.54492 9.82031 2.87695 9.63281C3.20898 9.44531 3.55859 9.29688 3.92578 9.1875C3.30859 8.21094 3 7.14844 3 6C3 5.1875 3.1582 4.41211 3.47461 3.67383C3.79102 2.93555 4.21875 2.29688 4.75781 1.75781C5.29688 1.21875 5.93555 0.791016 6.67383 0.474609C7.41211 0.158203 8.1875 0 9 0C9.8125 0 10.5879 0.158203 11.3262 0.474609C12.0645 0.791016 12.7031 1.21875 13.2422 1.75781C13.7812 2.29688 14.209 2.93555 14.5254 3.67383C14.8418 4.41211 15 5.1875 15 6C15 7.14844 14.6914 8.21094 14.0742 9.1875ZM9 1.5C7.75781 1.5 6.69727 1.93945 5.81836 2.81836C4.93945 3.69727 4.5 4.75781 4.5 6C4.5 7.24219 4.93945 8.30273 5.81836 9.18164C6.69727 10.0605 7.75781 10.5 9 10.5C10.2422 10.5 11.3027 10.0605 12.1816 9.18164C13.0605 8.30273 13.5 7.24219 13.5 6C13.5 4.75781 13.0605 3.69727 12.1816 2.81836C11.3027 1.93945 10.2422 1.5 9 1.5ZM14.0039 19.5C14.6914 19.5 15.2793 19.2207 15.7676 18.6621C16.2559 18.1035 16.5 17.4258 16.5 16.6289C16.5 14.7617 16.1934 13.2891 15.5801 12.2109C14.9668 11.1328 14.0859 10.5664 12.9375 10.5117C11.8047 11.5039 10.4922 12 9 12C7.50781 12 6.19531 11.5039 5.0625 10.5117C3.91406 10.5664 3.0332 11.1328 2.41992 12.2109C1.80664 13.2891 1.5 14.7617 1.5 16.6289C1.5 17.4258 1.74414 18.1035 2.23242 18.6621C2.7207 19.2207 3.30859 19.5 3.99609 19.5H14.0039Z" fill="#fff"/>
</svg>
