<svg width="200" height="29" viewBox="0 0 200 29" fill="none" xmlns="http://www.w3.org/2000/svg">
<g clip-path="url(#clip0_15_1414)">
<rect width="200" height="29" rx="14.5" fill="white"/>
<path fill-rule="evenodd" clip-rule="evenodd" d="M-12.2876 6.70257L-6.54289 4.5835C-0.798178 2.46443 10.6912 -1.77371 21.3244 -4.06543C31.9577 -6.35716 41.7347 -6.70246 48.943 -1.20852C56.1514 4.28542 60.7911 15.6186 67.4287 22.4102C74.0663 29.2017 82.7017 31.4516 87.0194 32.5766L91.3371 33.7016L82.775 53.1657L78.7427 51.392C74.7104 49.6182 66.6458 46.0707 58.5812 42.5231C50.5166 38.9756 42.4521 35.4281 34.3875 31.8806C26.3229 28.333 18.2583 24.7855 10.1937 21.238C2.12915 17.6905 -5.93543 14.1429 -9.96772 12.3692L-14 10.5954L-12.2876 6.70257Z" fill="#1877F2"/>
<path fill-rule="evenodd" clip-rule="evenodd" d="M-22.4844 9.28825L-17.4001 7.41277C-12.3157 5.53728 -2.14702 1.78632 7.26389 -0.24197C16.6748 -2.27026 25.3279 -2.57587 31.7077 2.28654C38.0875 7.14895 42.1939 17.1794 48.0685 23.1903C53.943 29.2011 61.5858 31.1924 65.4072 32.188L69.2285 33.1837L61.6507 50.4104L58.0819 48.8406C54.5131 47.2707 47.3756 44.131 40.238 40.9912C33.1004 37.8515 25.9629 34.7118 18.8253 31.572C11.6878 28.4323 4.55022 25.2925 -2.58734 22.1528C-9.72489 19.0131 -16.8624 15.8733 -20.4312 14.3035L-24 12.7336L-22.4844 9.28825Z" fill="#1561C2"/>
<path fill-rule="evenodd" clip-rule="evenodd" d="M-42.4844 9.28825L-37.4001 7.41277C-32.3157 5.53728 -22.147 1.78632 -12.7361 -0.24197C-3.32519 -2.27026 5.32794 -2.57587 11.7077 2.28654C18.0875 7.14895 22.1939 17.1794 28.0685 23.1903C33.943 29.2011 41.5858 31.1924 45.4072 32.188L49.2285 33.1837L41.6507 50.4104L38.0819 48.8406C34.5131 47.2707 27.3756 44.131 20.238 40.9912C13.1004 37.8515 5.96288 34.7118 -1.17467 31.572C-8.31223 28.4323 -15.4498 25.2925 -22.5873 22.1528C-29.7249 19.0131 -36.8624 15.8733 -40.4312 14.3035L-44 12.7336L-42.4844 9.28825Z" fill="#0D4792"/>
<g clip-path="url(#clip1_15_1414)">
<path d="M191 15C191 8.92491 186.075 4 180 4C173.925 4 169 8.92491 169 15C169 20.4904 173.023 25.0412 178.281 25.8664V18.1797H175.488V15H178.281V12.5766C178.281 9.81969 179.924 8.29688 182.436 8.29688C183.64 8.29688 184.898 8.51172 184.898 8.51172V11.2188H183.511C182.145 11.2188 181.719 12.0667 181.719 12.9366V15H184.77L184.282 18.1797H181.719V25.8664C186.977 25.0412 191 20.4905 191 15Z" fill="#1877F2"/>
<path d="M184.282 18.1797L184.77 15H181.719V12.9366C181.719 12.0666 182.145 11.2188 183.511 11.2188H184.898V8.51172C184.898 8.51172 183.64 8.29688 182.436 8.29688C179.924 8.29688 178.281 9.81969 178.281 12.5766V15H175.488V18.1797H178.281V25.8664C178.85 25.9555 179.424 26.0001 180 26C180.576 26.0001 181.15 25.9555 181.719 25.8664V18.1797H184.282Z" fill="white"/>
</g>
<path d="M94.09 10.6V18H92.69V10.6H94.09ZM97.9332 18.09C97.3999 18.09 96.9199 17.9733 96.4932 17.74C96.0665 17.5 95.7299 17.1633 95.4832 16.73C95.2432 16.2967 95.1232 15.7967 95.1232 15.23C95.1232 14.6633 95.2465 14.1633 95.4932 13.73C95.7465 13.2967 96.0899 12.9633 96.5232 12.73C96.9565 12.49 97.4399 12.37 97.9732 12.37C98.5065 12.37 98.9899 12.49 99.4232 12.73C99.8565 12.9633 100.197 13.2967 100.443 13.73C100.697 14.1633 100.823 14.6633 100.823 15.23C100.823 15.7967 100.693 16.2967 100.433 16.73C100.18 17.1633 99.8332 17.5 99.3932 17.74C98.9599 17.9733 98.4732 18.09 97.9332 18.09ZM97.9332 16.87C98.1865 16.87 98.4232 16.81 98.6432 16.69C98.8699 16.5633 99.0499 16.3767 99.1832 16.13C99.3165 15.8833 99.3832 15.5833 99.3832 15.23C99.3832 14.7033 99.2432 14.3 98.9632 14.02C98.6899 13.7333 98.3532 13.59 97.9532 13.59C97.5532 13.59 97.2165 13.7333 96.9432 14.02C96.6765 14.3 96.5432 14.7033 96.5432 15.23C96.5432 15.7567 96.6732 16.1633 96.9332 16.45C97.1999 16.73 97.5332 16.87 97.9332 16.87ZM104.02 12.37C104.433 12.37 104.797 12.4533 105.11 12.62C105.423 12.78 105.67 12.99 105.85 13.25V12.46H107.26V18.04C107.26 18.5533 107.157 19.01 106.95 19.41C106.743 19.8167 106.433 20.1367 106.02 20.37C105.607 20.61 105.107 20.73 104.52 20.73C103.733 20.73 103.087 20.5467 102.58 20.18C102.08 19.8133 101.797 19.3133 101.73 18.68H103.12C103.193 18.9333 103.35 19.1333 103.59 19.28C103.837 19.4333 104.133 19.51 104.48 19.51C104.887 19.51 105.217 19.3867 105.47 19.14C105.723 18.9 105.85 18.5333 105.85 18.04V17.18C105.67 17.44 105.42 17.6567 105.1 17.83C104.787 18.0033 104.427 18.09 104.02 18.09C103.553 18.09 103.127 17.97 102.74 17.73C102.353 17.49 102.047 17.1533 101.82 16.72C101.6 16.28 101.49 15.7767 101.49 15.21C101.49 14.65 101.6 14.1533 101.82 13.72C102.047 13.2867 102.35 12.9533 102.73 12.72C103.117 12.4867 103.547 12.37 104.02 12.37ZM105.85 15.23C105.85 14.89 105.783 14.6 105.65 14.36C105.517 14.1133 105.337 13.9267 105.11 13.8C104.883 13.6667 104.64 13.6 104.38 13.6C104.12 13.6 103.88 13.6633 103.66 13.79C103.44 13.9167 103.26 14.1033 103.12 14.35C102.987 14.59 102.92 14.8767 102.92 15.21C102.92 15.5433 102.987 15.8367 103.12 16.09C103.26 16.3367 103.44 16.5267 103.66 16.66C103.887 16.7933 104.127 16.86 104.38 16.86C104.64 16.86 104.883 16.7967 105.11 16.67C105.337 16.5367 105.517 16.35 105.65 16.11C105.783 15.8633 105.85 15.57 105.85 15.23ZM109.338 11.8C109.091 11.8 108.884 11.7233 108.718 11.57C108.558 11.41 108.478 11.2133 108.478 10.98C108.478 10.7467 108.558 10.5533 108.718 10.4C108.884 10.24 109.091 10.16 109.338 10.16C109.584 10.16 109.788 10.24 109.948 10.4C110.114 10.5533 110.198 10.7467 110.198 10.98C110.198 11.2133 110.114 11.41 109.948 11.57C109.788 11.7233 109.584 11.8 109.338 11.8ZM110.028 12.46V18H108.628V12.46H110.028ZM114.481 12.38C115.141 12.38 115.674 12.59 116.081 13.01C116.487 13.4233 116.691 14.0033 116.691 14.75V18H115.291V14.94C115.291 14.5 115.181 14.1633 114.961 13.93C114.741 13.69 114.441 13.57 114.061 13.57C113.674 13.57 113.367 13.69 113.141 13.93C112.921 14.1633 112.811 14.5 112.811 14.94V18H111.411V12.46H112.811V13.15C112.997 12.91 113.234 12.7233 113.521 12.59C113.814 12.45 114.134 12.38 114.481 12.38Z" fill="black"/>
</g>
<defs>
<clipPath id="clip0_15_1414">
<rect width="200" height="29" rx="14.5" fill="white"/>
</clipPath>
<clipPath id="clip1_15_1414">
<rect width="22" height="22" fill="white" transform="translate(169 4)"/>
</clipPath>
</defs>
</svg>
