<svg width="200" height="29" viewBox="0 0 200 29" fill="none" xmlns="http://www.w3.org/2000/svg">
<g clip-path="url(#clip0_15_1403)">
<rect width="200" height="29" rx="14.5" fill="white"/>
<g clip-path="url(#clip1_15_1403)">
<path d="M175.967 5.65778C173.969 6.35101 172.246 7.66679 171.05 9.41184C169.855 11.1569 169.251 13.2393 169.327 15.353C169.402 17.4668 170.154 19.5006 171.471 21.1557C172.788 22.8108 174.601 23.9999 176.644 24.5484C178.3 24.9757 180.035 24.9945 181.7 24.6031C183.208 24.2643 184.603 23.5396 185.747 22.5C186.938 21.3849 187.802 19.9663 188.247 18.3968C188.731 16.6901 188.817 14.8952 188.498 13.15H179.198V17.0078H184.584C184.477 17.6231 184.246 18.2103 183.906 18.7344C183.566 19.2585 183.124 19.7086 182.606 20.0578C181.949 20.4928 181.207 20.7855 180.43 20.9172C179.65 21.0621 178.85 21.0621 178.07 20.9172C177.28 20.7538 176.532 20.4276 175.875 19.9593C174.819 19.2118 174.026 18.1498 173.609 16.925C173.186 15.6771 173.186 14.3244 173.609 13.0765C173.906 12.2019 174.396 11.4055 175.044 10.7468C175.785 9.97926 176.723 9.43059 177.755 9.16102C178.787 8.89146 179.874 8.91142 180.895 9.21872C181.693 9.4637 182.423 9.89174 183.027 10.4687C183.634 9.86455 184.24 9.25882 184.845 8.65153C185.158 8.32497 185.498 8.01403 185.806 7.67965C184.885 6.82259 183.804 6.15568 182.625 5.71715C180.478 4.93745 178.128 4.9165 175.967 5.65778Z" fill="white"/>
<path d="M175.967 5.65781C178.128 4.91602 180.478 4.93642 182.625 5.71562C183.804 6.15712 184.885 6.82724 185.805 7.68749C185.492 8.02187 185.163 8.33437 184.844 8.65937C184.238 9.26458 183.632 9.8677 183.027 10.4687C182.423 9.89177 181.693 9.46373 180.895 9.21874C179.874 8.91037 178.788 8.88926 177.755 9.15772C176.723 9.42618 175.784 9.97384 175.042 10.7406C174.395 11.3993 173.904 12.1956 173.608 13.0703L170.369 10.5625C171.528 8.26337 173.536 6.50472 175.967 5.65781Z" fill="#E33629"/>
<path d="M169.509 13.0469C169.683 12.1841 169.972 11.3485 170.369 10.5625L173.608 13.0766C173.184 14.3244 173.184 15.6772 173.608 16.925C172.529 17.7583 171.449 18.5958 170.369 19.4375C169.377 17.463 169.074 15.2133 169.509 13.0469Z" fill="#F8BD00"/>
<path d="M179.198 13.1484H188.498C188.817 14.8936 188.731 16.6885 188.247 18.3953C187.802 19.9648 186.938 21.3834 185.747 22.4984C184.702 21.6828 183.652 20.8734 182.606 20.0578C183.125 19.7082 183.567 19.2576 183.907 18.733C184.247 18.2084 184.477 17.6205 184.584 17.0047H179.198C179.197 15.7203 179.198 14.4344 179.198 13.1484Z" fill="#587DBD"/>
<path d="M170.367 19.4375C171.447 18.6042 172.527 17.7667 173.606 16.925C174.024 18.1504 174.818 19.2124 175.875 19.9594C176.534 20.4255 177.284 20.749 178.075 20.9094C178.855 21.0544 179.655 21.0544 180.434 20.9094C181.212 20.7778 181.953 20.4851 182.611 20.05C183.656 20.8657 184.706 21.675 185.752 22.4907C184.608 23.5309 183.213 24.2561 181.705 24.5954C180.04 24.9868 178.305 24.968 176.648 24.5407C175.339 24.1909 174.115 23.5744 173.055 22.7297C171.932 21.8386 171.016 20.7156 170.367 19.4375Z" fill="#319F43"/>
</g>
<path fill-rule="evenodd" clip-rule="evenodd" d="M-12.2876 6.70257L-6.54289 4.5835C-0.798178 2.46443 10.6912 -1.77371 21.3244 -4.06543C31.9577 -6.35716 41.7347 -6.70246 48.943 -1.20852C56.1514 4.28542 60.7911 15.6186 67.4287 22.4102C74.0663 29.2017 82.7017 31.4516 87.0194 32.5766L91.3371 33.7016L82.775 53.1657L78.7427 51.392C74.7104 49.6182 66.6458 46.0707 58.5812 42.5231C50.5166 38.9756 42.4521 35.4281 34.3875 31.8806C26.3229 28.333 18.2583 24.7855 10.1937 21.238C2.12915 17.6905 -5.93543 14.1429 -9.96772 12.3692L-14 10.5954L-12.2876 6.70257Z" fill="#587DBD"/>
<path fill-rule="evenodd" clip-rule="evenodd" d="M-23.4844 9.28825L-18.4001 7.41277C-13.3157 5.53728 -3.14702 1.78632 6.26389 -0.24197C15.6748 -2.27026 24.3279 -2.57587 30.7077 2.28654C37.0875 7.14895 41.1939 17.1794 47.0685 23.1903C52.943 29.2011 60.5858 31.1924 64.4072 32.188L68.2285 33.1837L60.6507 50.4104L57.0819 48.8406C53.5131 47.2707 46.3756 44.131 39.238 40.9912C32.1004 37.8515 24.9629 34.7118 17.8253 31.572C10.6878 28.4323 3.55022 25.2925 -3.58734 22.1528C-10.7249 19.0131 -17.8624 15.8733 -21.4312 14.3035L-25 12.7336L-23.4844 9.28825Z" fill="#F8BD00"/>
<path fill-rule="evenodd" clip-rule="evenodd" d="M-36.4844 15.2883L-31.4001 13.4128C-26.3157 11.5373 -16.147 7.78632 -6.73611 5.75803C2.67481 3.72974 11.3279 3.42413 17.7077 8.28654C24.0875 13.149 28.1939 23.1794 34.0685 29.1903C39.943 35.2011 47.5858 37.1924 51.4072 38.188L55.2285 39.1837L47.6507 56.4104L44.0819 54.8406C40.5131 53.2707 33.3756 50.131 26.238 46.9912C19.1004 43.8515 11.9629 40.7118 4.82533 37.572C-2.31223 34.4323 -9.44978 31.2925 -16.5873 28.1528C-23.7249 25.0131 -30.8624 21.8733 -34.4312 20.3035L-38 18.7336L-36.4844 15.2883Z" fill="#E33629"/>
<path d="M94.09 10.6V18H92.69V10.6H94.09ZM97.9332 18.09C97.3999 18.09 96.9199 17.9733 96.4932 17.74C96.0665 17.5 95.7299 17.1633 95.4832 16.73C95.2432 16.2967 95.1232 15.7967 95.1232 15.23C95.1232 14.6633 95.2465 14.1633 95.4932 13.73C95.7465 13.2967 96.0899 12.9633 96.5232 12.73C96.9565 12.49 97.4399 12.37 97.9732 12.37C98.5065 12.37 98.9899 12.49 99.4232 12.73C99.8565 12.9633 100.197 13.2967 100.443 13.73C100.697 14.1633 100.823 14.6633 100.823 15.23C100.823 15.7967 100.693 16.2967 100.433 16.73C100.18 17.1633 99.8332 17.5 99.3932 17.74C98.9599 17.9733 98.4732 18.09 97.9332 18.09ZM97.9332 16.87C98.1865 16.87 98.4232 16.81 98.6432 16.69C98.8699 16.5633 99.0499 16.3767 99.1832 16.13C99.3165 15.8833 99.3832 15.5833 99.3832 15.23C99.3832 14.7033 99.2432 14.3 98.9632 14.02C98.6899 13.7333 98.3532 13.59 97.9532 13.59C97.5532 13.59 97.2165 13.7333 96.9432 14.02C96.6765 14.3 96.5432 14.7033 96.5432 15.23C96.5432 15.7567 96.6732 16.1633 96.9332 16.45C97.1999 16.73 97.5332 16.87 97.9332 16.87ZM104.02 12.37C104.433 12.37 104.797 12.4533 105.11 12.62C105.423 12.78 105.67 12.99 105.85 13.25V12.46H107.26V18.04C107.26 18.5533 107.157 19.01 106.95 19.41C106.743 19.8167 106.433 20.1367 106.02 20.37C105.607 20.61 105.107 20.73 104.52 20.73C103.733 20.73 103.087 20.5467 102.58 20.18C102.08 19.8133 101.797 19.3133 101.73 18.68H103.12C103.193 18.9333 103.35 19.1333 103.59 19.28C103.837 19.4333 104.133 19.51 104.48 19.51C104.887 19.51 105.217 19.3867 105.47 19.14C105.723 18.9 105.85 18.5333 105.85 18.04V17.18C105.67 17.44 105.42 17.6567 105.1 17.83C104.787 18.0033 104.427 18.09 104.02 18.09C103.553 18.09 103.127 17.97 102.74 17.73C102.353 17.49 102.047 17.1533 101.82 16.72C101.6 16.28 101.49 15.7767 101.49 15.21C101.49 14.65 101.6 14.1533 101.82 13.72C102.047 13.2867 102.35 12.9533 102.73 12.72C103.117 12.4867 103.547 12.37 104.02 12.37ZM105.85 15.23C105.85 14.89 105.783 14.6 105.65 14.36C105.517 14.1133 105.337 13.9267 105.11 13.8C104.883 13.6667 104.64 13.6 104.38 13.6C104.12 13.6 103.88 13.6633 103.66 13.79C103.44 13.9167 103.26 14.1033 103.12 14.35C102.987 14.59 102.92 14.8767 102.92 15.21C102.92 15.5433 102.987 15.8367 103.12 16.09C103.26 16.3367 103.44 16.5267 103.66 16.66C103.887 16.7933 104.127 16.86 104.38 16.86C104.64 16.86 104.883 16.7967 105.11 16.67C105.337 16.5367 105.517 16.35 105.65 16.11C105.783 15.8633 105.85 15.57 105.85 15.23ZM109.338 11.8C109.091 11.8 108.884 11.7233 108.718 11.57C108.558 11.41 108.478 11.2133 108.478 10.98C108.478 10.7467 108.558 10.5533 108.718 10.4C108.884 10.24 109.091 10.16 109.338 10.16C109.584 10.16 109.788 10.24 109.948 10.4C110.114 10.5533 110.198 10.7467 110.198 10.98C110.198 11.2133 110.114 11.41 109.948 11.57C109.788 11.7233 109.584 11.8 109.338 11.8ZM110.028 12.46V18H108.628V12.46H110.028ZM114.481 12.38C115.141 12.38 115.674 12.59 116.081 13.01C116.487 13.4233 116.691 14.0033 116.691 14.75V18H115.291V14.94C115.291 14.5 115.181 14.1633 114.961 13.93C114.741 13.69 114.441 13.57 114.061 13.57C113.674 13.57 113.367 13.69 113.141 13.93C112.921 14.1633 112.811 14.5 112.811 14.94V18H111.411V12.46H112.811V13.15C112.997 12.91 113.234 12.7233 113.521 12.59C113.814 12.45 114.134 12.38 114.481 12.38Z" fill="black"/>
</g>
<defs>
<clipPath id="clip0_15_1403">
<rect width="200" height="29" rx="14.5" fill="white"/>
</clipPath>
<clipPath id="clip1_15_1403">
<rect width="20" height="20" fill="white" transform="translate(169 5)"/>
</clipPath>
</defs>
</svg>
