<svg width="113" height="30" viewBox="0 0 113 30" fill="none" xmlns="http://www.w3.org/2000/svg">
<path d="M0.598637 8.37724C0.708008 8.03868 0.831922 7.70552 0.970015 7.37867L7.37867 0.970015C7.70552 0.831922 8.03868 0.708007 8.37724 0.598636L0.598637 8.37724Z" fill="url(#paint0_linear_15_1312)"/>
<path d="M0.186163 10.044C0.232744 9.77748 0.287927 9.51315 0.351555 9.25146L9.25146 0.351554C9.51316 0.287926 9.77748 0.232743 10.044 0.186163L0.186163 10.044Z" fill="url(#paint1_linear_15_1312)"/>
<path d="M0.0214152 11.4632C0.0348505 11.2333 0.0545745 11.0045 0.0804941 10.7769L10.7769 0.080494C11.0045 0.0545738 11.2333 0.034851 11.4632 0.0214151L0.0214152 11.4632Z" fill="url(#paint2_linear_15_1312)"/>
<path d="M0.0111046 12.7278C0.00680703 12.6252 0.00375116 12.5225 0.00194719 12.4196C0.000142026 12.3168 -0.000405864 12.214 0.00029455 12.1114L12.1114 0.000294449C12.214 -0.000405965 12.3168 0.000142523 12.4196 0.00194709C12.5225 0.00375106 12.6252 0.00680633 12.7278 0.0111039L0.0111046 12.7278Z" fill="url(#paint3_linear_15_1312)"/>
<path d="M0.112138 13.8812C0.0870962 13.6937 0.0661933 13.5055 0.0494844 13.3167L13.3167 0.0494831C13.5055 0.066192 13.6937 0.0870968 13.8812 0.112139L0.112138 13.8812Z" fill="url(#paint4_linear_15_1312)"/>
<path d="M0.300554 14.9472C0.262282 14.7736 0.227585 14.5992 0.196508 14.4241L14.4241 0.196507C14.5992 0.227584 14.7736 0.262282 14.9472 0.300553L0.300554 14.9472Z" fill="url(#paint5_linear_15_1312)"/>
<path d="M0.56136 15.9407C0.511935 15.7788 0.465672 15.616 0.422612 15.4523L15.4523 0.422611C15.616 0.465671 15.7788 0.511934 15.9407 0.561358L0.56136 15.9407Z" fill="url(#paint6_linear_15_1312)"/>
<path d="M0.884619 16.8719C0.825445 16.7202 0.769121 16.5674 0.715685 16.4136L16.4136 0.715684C16.5674 0.769121 16.7202 0.825444 16.8719 0.884618L0.884619 16.8719Z" fill="url(#paint7_linear_15_1312)"/>
<path d="M1.26336 17.7475C1.19542 17.6049 1.13009 17.4611 1.0674 17.3163L17.3163 1.0674C17.4611 1.13009 17.6049 1.19542 17.7475 1.26336L1.26336 17.7475Z" fill="url(#paint8_linear_15_1312)"/>
<path d="M1.69268 18.5725C1.61667 18.4383 1.54308 18.3028 1.47193 18.1661L18.1661 1.47193C18.3028 1.54308 18.4383 1.61667 18.5725 1.69268L1.69268 18.5725Z" fill="url(#paint9_linear_15_1312)"/>
<path d="M2.16914 19.3505C2.08556 19.224 2.00424 19.0963 1.9252 18.9673L18.9673 1.9252C19.0963 2.00424 19.224 2.08556 19.3505 2.16914L2.16914 19.3505Z" fill="url(#paint10_linear_15_1312)"/>
<path d="M2.69024 20.0837C2.59943 19.9647 2.51074 19.8443 2.42421 19.7226L19.7226 2.42421C19.8443 2.51074 19.9647 2.59942 20.0837 2.69024L2.69024 20.0837Z" fill="url(#paint11_linear_15_1312)"/>
<path d="M3.25445 20.7739C3.15662 20.6621 3.06081 20.5488 2.96705 20.4342L20.4342 2.96705C20.5488 3.06081 20.6621 3.15662 20.7739 3.25445L3.25445 20.7739Z" fill="url(#paint12_linear_15_1312)"/>
<path d="M3.86075 21.422C3.75602 21.3173 3.65322 21.211 3.55237 21.1032L21.1032 3.55237C21.211 3.65322 21.3173 3.75602 21.422 3.86075L3.86075 21.422Z" fill="url(#paint13_linear_15_1312)"/>
<path d="M6.14678 1.57472L1.57472 6.14678C2.10738 5.20125 2.76835 4.32596 3.54716 3.54716C4.32596 2.76835 5.20125 2.10738 6.14678 1.57472Z" fill="url(#paint14_linear_15_1312)"/>
<path d="M22.4013 21.0455C22.2919 21.3841 22.168 21.7172 22.0299 22.0441L15.6212 28.4527C15.2944 28.5908 14.9612 28.7147 14.6227 28.8241L22.4013 21.0455Z" fill="url(#paint15_linear_15_1312)"/>
<path d="M22.8137 19.3787C22.7672 19.6453 22.712 19.9096 22.6483 20.1713L13.7484 29.0712C13.4867 29.1348 13.2224 29.19 12.9559 29.2366L22.8137 19.3787Z" fill="url(#paint16_linear_15_1312)"/>
<path d="M22.9785 17.9595C22.965 18.1895 22.9453 18.4183 22.9194 18.6458L12.223 29.3423C11.9954 29.3682 11.7666 29.3879 11.5367 29.4013L22.9785 17.9595Z" fill="url(#paint17_linear_15_1312)"/>
<path d="M22.9888 16.6949C22.9931 16.7975 22.9961 16.9003 22.998 17.0031C22.9998 17.106 23.0003 17.2087 22.9996 17.3113L10.8885 29.4225C10.7859 29.4232 10.6831 29.4226 10.5803 29.4208C10.4774 29.419 10.3747 29.4159 10.2721 29.4116L22.9888 16.6949Z" fill="url(#paint18_linear_15_1312)"/>
<path d="M22.8878 15.5415C22.9128 15.729 22.9337 15.9172 22.9504 16.106L9.68319 29.3733C9.4944 29.3566 9.30617 29.3357 9.11866 29.3106L22.8878 15.5415Z" fill="url(#paint19_linear_15_1312)"/>
<path d="M22.6993 14.4755C22.7376 14.6491 22.7723 14.8235 22.8034 14.9987L8.57584 29.2262C8.40069 29.1952 8.22627 29.1605 8.0527 29.1222L22.6993 14.4755Z" fill="url(#paint20_linear_15_1312)"/>
<path d="M22.4385 13.482C22.488 13.6439 22.5342 13.8068 22.5773 13.9705L7.54764 29.0001C7.38393 28.9571 7.22109 28.9108 7.0592 28.8614L22.4385 13.482Z" fill="url(#paint21_linear_15_1312)"/>
<path d="M22.1153 12.5509C22.1745 12.7026 22.2308 12.8554 22.2842 13.0091L6.58626 28.7071C6.43251 28.6536 6.27973 28.5973 6.12801 28.5381L22.1153 12.5509Z" fill="url(#paint22_linear_15_1312)"/>
<path d="M21.7365 11.6752C21.8045 11.8178 21.8698 11.9616 21.9325 12.1064L5.6836 28.3554C5.53877 28.2927 5.395 28.2273 5.25237 28.1594L21.7365 11.6752Z" fill="url(#paint23_linear_15_1312)"/>
<path d="M21.3072 10.8502C21.3832 10.9845 21.4568 11.12 21.528 11.2566L4.8338 27.9508C4.69714 27.8797 4.56164 27.8061 4.42735 27.7301L21.3072 10.8502Z" fill="url(#paint24_linear_15_1312)"/>
<path d="M20.8308 10.0722C20.9143 10.1987 20.9957 10.3265 21.0747 10.4555L4.03265 27.4976C3.90364 27.4185 3.77587 27.3372 3.6494 27.2536L20.8308 10.0722Z" fill="url(#paint25_linear_15_1312)"/>
<path d="M20.3097 9.33904C20.4005 9.45806 20.4892 9.57847 20.5757 9.7002L3.27735 26.9985C3.15562 26.912 3.03521 26.8233 2.91618 26.7325L20.3097 9.33904Z" fill="url(#paint26_linear_15_1312)"/>
<path d="M19.7455 8.64881C19.8433 8.76062 19.9391 8.8739 20.0329 8.98859L2.56574 26.4557C2.45105 26.3619 2.33777 26.2661 2.22596 26.1683L19.7455 8.64881Z" fill="url(#paint27_linear_15_1312)"/>
<path d="M1.89669 25.8704C1.7889 25.7695 1.68261 25.6667 1.57788 25.562L19.1392 8.00073C19.2439 8.10546 19.3467 8.21175 19.4475 8.31954L1.89669 25.8704Z" fill="url(#paint28_linear_15_1312)"/>
<path d="M16.8531 27.848L21.4252 23.276C20.8925 24.2215 20.2315 25.0968 19.4527 25.8756C18.6739 26.6544 17.7986 27.3154 16.8531 27.848Z" fill="url(#paint29_linear_15_1312)"/>
<path d="M31.86 15.02C31.86 13.66 32.1667 12.44 32.78 11.36C33.3933 10.2667 34.2267 9.41333 35.28 8.8C36.3467 8.18667 37.5267 7.88 38.82 7.88C40.34 7.88 41.6667 8.24667 42.8 8.98C43.9333 9.71333 44.76 10.7533 45.28 12.1H43.1C42.7133 11.26 42.1533 10.6133 41.42 10.16C40.7 9.70667 39.8333 9.48 38.82 9.48C37.8467 9.48 36.9733 9.70667 36.2 10.16C35.4267 10.6133 34.82 11.26 34.38 12.1C33.94 12.9267 33.72 13.9 33.72 15.02C33.72 16.1267 33.94 17.1 34.38 17.94C34.82 18.7667 35.4267 19.4067 36.2 19.86C36.9733 20.3133 37.8467 20.54 38.82 20.54C39.8333 20.54 40.7 20.32 41.42 19.88C42.1533 19.4267 42.7133 18.78 43.1 17.94H45.28C44.76 19.2733 43.9333 20.3067 42.8 21.04C41.6667 21.76 40.34 22.12 38.82 22.12C37.5267 22.12 36.3467 21.82 35.28 21.22C34.2267 20.6067 33.3933 19.76 32.78 18.68C32.1667 17.6 31.86 16.38 31.86 15.02ZM57.9892 16.1C57.9892 16.4467 57.9692 16.8133 57.9292 17.2H49.1692C49.2359 18.28 49.6026 19.1267 50.2692 19.74C50.9492 20.34 51.7692 20.64 52.7292 20.64C53.5159 20.64 54.1692 20.46 54.6892 20.1C55.2226 19.7267 55.5959 19.2333 55.8092 18.62H57.7692C57.4759 19.6733 56.8892 20.5333 56.0092 21.2C55.1292 21.8533 54.0359 22.18 52.7292 22.18C51.6892 22.18 50.7559 21.9467 49.9292 21.48C49.1159 21.0133 48.4759 20.3533 48.0092 19.5C47.5426 18.6333 47.3092 17.6333 47.3092 16.5C47.3092 15.3667 47.5359 14.3733 47.9892 13.52C48.4426 12.6667 49.0759 12.0133 49.8892 11.56C50.7159 11.0933 51.6626 10.86 52.7292 10.86C53.7692 10.86 54.6892 11.0867 55.4892 11.54C56.2892 11.9933 56.9026 12.62 57.3292 13.42C57.7692 14.2067 57.9892 15.1 57.9892 16.1ZM56.1092 15.72C56.1092 15.0267 55.9559 14.4333 55.6492 13.94C55.3426 13.4333 54.9226 13.0533 54.3892 12.8C53.8692 12.5333 53.2892 12.4 52.6492 12.4C51.7292 12.4 50.9426 12.6933 50.2892 13.28C49.6492 13.8667 49.2826 14.68 49.1892 15.72H56.1092ZM62.2116 7.2V22H60.3916V7.2H62.2116ZM75.3134 16.1C75.3134 16.4467 75.2934 16.8133 75.2534 17.2H66.4934C66.5601 18.28 66.9268 19.1267 67.5934 19.74C68.2734 20.34 69.0934 20.64 70.0534 20.64C70.8401 20.64 71.4934 20.46 72.0134 20.1C72.5468 19.7267 72.9201 19.2333 73.1334 18.62H75.0934C74.8001 19.6733 74.2134 20.5333 73.3334 21.2C72.4534 21.8533 71.3601 22.18 70.0534 22.18C69.0134 22.18 68.0801 21.9467 67.2534 21.48C66.4401 21.0133 65.8001 20.3533 65.3334 19.5C64.8668 18.6333 64.6334 17.6333 64.6334 16.5C64.6334 15.3667 64.8601 14.3733 65.3134 13.52C65.7668 12.6667 66.4001 12.0133 67.2134 11.56C68.0401 11.0933 68.9868 10.86 70.0534 10.86C71.0934 10.86 72.0134 11.0867 72.8134 11.54C73.6134 11.9933 74.2268 12.62 74.6534 13.42C75.0934 14.2067 75.3134 15.1 75.3134 16.1ZM73.4334 15.72C73.4334 15.0267 73.2801 14.4333 72.9734 13.94C72.6668 13.4333 72.2468 13.0533 71.7134 12.8C71.1934 12.5333 70.6134 12.4 69.9734 12.4C69.0534 12.4 68.2668 12.6933 67.6134 13.28C66.9734 13.8667 66.6068 14.68 66.5134 15.72H73.4334ZM81.5958 22.18C80.7558 22.18 80.0024 22.04 79.3358 21.76C78.6691 21.4667 78.1424 21.0667 77.7558 20.56C77.3691 20.04 77.1558 19.4467 77.1158 18.78H78.9958C79.0491 19.3267 79.3024 19.7733 79.7558 20.12C80.2224 20.4667 80.8291 20.64 81.5758 20.64C82.2691 20.64 82.8158 20.4867 83.2158 20.18C83.6158 19.8733 83.8158 19.4867 83.8158 19.02C83.8158 18.54 83.6024 18.1867 83.1758 17.96C82.7491 17.72 82.0891 17.4867 81.1958 17.26C80.3824 17.0467 79.7158 16.8333 79.1958 16.62C78.6891 16.3933 78.2491 16.0667 77.8758 15.64C77.5158 15.2 77.3358 14.6267 77.3358 13.92C77.3358 13.36 77.5024 12.8467 77.8358 12.38C78.1691 11.9133 78.6424 11.5467 79.2558 11.28C79.8691 11 80.5691 10.86 81.3558 10.86C82.5691 10.86 83.5491 11.1667 84.2958 11.78C85.0424 12.3933 85.4424 13.2333 85.4958 14.3H83.6758C83.6358 13.7267 83.4024 13.2667 82.9758 12.92C82.5624 12.5733 82.0024 12.4 81.2958 12.4C80.6424 12.4 80.1224 12.54 79.7358 12.82C79.3491 13.1 79.1558 13.4667 79.1558 13.92C79.1558 14.28 79.2691 14.58 79.4958 14.82C79.7358 15.0467 80.0291 15.2333 80.3758 15.38C80.7358 15.5133 81.2291 15.6667 81.8558 15.84C82.6424 16.0533 83.2824 16.2667 83.7758 16.48C84.2691 16.68 84.6891 16.9867 85.0358 17.4C85.3958 17.8133 85.5824 18.3533 85.5958 19.02C85.5958 19.62 85.4291 20.16 85.0958 20.64C84.7624 21.12 84.2891 21.5 83.6758 21.78C83.0758 22.0467 82.3824 22.18 81.5958 22.18ZM90.385 12.54V19C90.385 19.5333 90.4983 19.9133 90.725 20.14C90.9517 20.3533 91.345 20.46 91.905 20.46H93.245V22H91.605C90.5917 22 89.8317 21.7667 89.325 21.3C88.8183 20.8333 88.565 20.0667 88.565 19V12.54H87.145V11.04H88.565V8.28H90.385V11.04H93.245V12.54H90.385ZM96.3902 9.26C96.0435 9.26 95.7502 9.14 95.5102 8.9C95.2702 8.66 95.1502 8.36667 95.1502 8.02C95.1502 7.67333 95.2702 7.38 95.5102 7.14C95.7502 6.9 96.0435 6.78 96.3902 6.78C96.7235 6.78 97.0035 6.9 97.2302 7.14C97.4702 7.38 97.5902 7.67333 97.5902 8.02C97.5902 8.36667 97.4702 8.66 97.2302 8.9C97.0035 9.14 96.7235 9.26 96.3902 9.26ZM97.2702 11.04V22H95.4502V11.04H97.2702ZM99.692 16.48C99.692 15.36 99.9187 14.38 100.372 13.54C100.825 12.6867 101.445 12.0267 102.232 11.56C103.032 11.0933 103.919 10.86 104.892 10.86C105.852 10.86 106.685 11.0667 107.392 11.48C108.099 11.8933 108.625 12.4133 108.972 13.04V11.04H110.812V22H108.972V19.96C108.612 20.6 108.072 21.1333 107.352 21.56C106.645 21.9733 105.819 22.18 104.872 22.18C103.899 22.18 103.019 21.94 102.232 21.46C101.445 20.98 100.825 20.3067 100.372 19.44C99.9187 18.5733 99.692 17.5867 99.692 16.48ZM108.972 16.5C108.972 15.6733 108.805 14.9533 108.472 14.34C108.139 13.7267 107.685 13.26 107.112 12.94C106.552 12.6067 105.932 12.44 105.252 12.44C104.572 12.44 103.952 12.6 103.392 12.92C102.832 13.24 102.385 13.7067 102.052 14.32C101.719 14.9333 101.552 15.6533 101.552 16.48C101.552 17.32 101.719 18.0533 102.052 18.68C102.385 19.2933 102.832 19.7667 103.392 20.1C103.952 20.42 104.572 20.58 105.252 20.58C105.932 20.58 106.552 20.42 107.112 20.1C107.685 19.7667 108.139 19.2933 108.472 18.68C108.805 18.0533 108.972 17.3267 108.972 16.5Z" fill="url(#paint30_linear_15_1312)"/>
<defs>
<linearGradient id="paint0_linear_15_1312" x1="10.711" y1="0" x2="10.711" y2="21.422" gradientUnits="userSpaceOnUse">
<stop stop-color="#03001E"/>
<stop offset="0.32" stop-color="#7303C0"/>
<stop offset="0.645" stop-color="#EC38BC"/>
<stop offset="0.975" stop-color="#FDEFF9"/>
</linearGradient>
<linearGradient id="paint1_linear_15_1312" x1="10.711" y1="0" x2="10.711" y2="21.422" gradientUnits="userSpaceOnUse">
<stop stop-color="#03001E"/>
<stop offset="0.32" stop-color="#7303C0"/>
<stop offset="0.645" stop-color="#EC38BC"/>
<stop offset="0.975" stop-color="#FDEFF9"/>
</linearGradient>
<linearGradient id="paint2_linear_15_1312" x1="10.711" y1="0" x2="10.711" y2="21.422" gradientUnits="userSpaceOnUse">
<stop stop-color="#03001E"/>
<stop offset="0.32" stop-color="#7303C0"/>
<stop offset="0.645" stop-color="#EC38BC"/>
<stop offset="0.975" stop-color="#FDEFF9"/>
</linearGradient>
<linearGradient id="paint3_linear_15_1312" x1="10.711" y1="0" x2="10.711" y2="21.422" gradientUnits="userSpaceOnUse">
<stop stop-color="#03001E"/>
<stop offset="0.32" stop-color="#7303C0"/>
<stop offset="0.645" stop-color="#EC38BC"/>
<stop offset="0.975" stop-color="#FDEFF9"/>
</linearGradient>
<linearGradient id="paint4_linear_15_1312" x1="10.711" y1="0" x2="10.711" y2="21.422" gradientUnits="userSpaceOnUse">
<stop stop-color="#03001E"/>
<stop offset="0.32" stop-color="#7303C0"/>
<stop offset="0.645" stop-color="#EC38BC"/>
<stop offset="0.975" stop-color="#FDEFF9"/>
</linearGradient>
<linearGradient id="paint5_linear_15_1312" x1="10.711" y1="0" x2="10.711" y2="21.422" gradientUnits="userSpaceOnUse">
<stop stop-color="#03001E"/>
<stop offset="0.32" stop-color="#7303C0"/>
<stop offset="0.645" stop-color="#EC38BC"/>
<stop offset="0.975" stop-color="#FDEFF9"/>
</linearGradient>
<linearGradient id="paint6_linear_15_1312" x1="10.711" y1="0" x2="10.711" y2="21.422" gradientUnits="userSpaceOnUse">
<stop stop-color="#03001E"/>
<stop offset="0.32" stop-color="#7303C0"/>
<stop offset="0.645" stop-color="#EC38BC"/>
<stop offset="0.975" stop-color="#FDEFF9"/>
</linearGradient>
<linearGradient id="paint7_linear_15_1312" x1="10.711" y1="0" x2="10.711" y2="21.422" gradientUnits="userSpaceOnUse">
<stop stop-color="#03001E"/>
<stop offset="0.32" stop-color="#7303C0"/>
<stop offset="0.645" stop-color="#EC38BC"/>
<stop offset="0.975" stop-color="#FDEFF9"/>
</linearGradient>
<linearGradient id="paint8_linear_15_1312" x1="10.711" y1="0" x2="10.711" y2="21.422" gradientUnits="userSpaceOnUse">
<stop stop-color="#03001E"/>
<stop offset="0.32" stop-color="#7303C0"/>
<stop offset="0.645" stop-color="#EC38BC"/>
<stop offset="0.975" stop-color="#FDEFF9"/>
</linearGradient>
<linearGradient id="paint9_linear_15_1312" x1="10.711" y1="0" x2="10.711" y2="21.422" gradientUnits="userSpaceOnUse">
<stop stop-color="#03001E"/>
<stop offset="0.32" stop-color="#7303C0"/>
<stop offset="0.645" stop-color="#EC38BC"/>
<stop offset="0.975" stop-color="#FDEFF9"/>
</linearGradient>
<linearGradient id="paint10_linear_15_1312" x1="10.711" y1="0" x2="10.711" y2="21.422" gradientUnits="userSpaceOnUse">
<stop stop-color="#03001E"/>
<stop offset="0.32" stop-color="#7303C0"/>
<stop offset="0.645" stop-color="#EC38BC"/>
<stop offset="0.975" stop-color="#FDEFF9"/>
</linearGradient>
<linearGradient id="paint11_linear_15_1312" x1="10.711" y1="0" x2="10.711" y2="21.422" gradientUnits="userSpaceOnUse">
<stop stop-color="#03001E"/>
<stop offset="0.32" stop-color="#7303C0"/>
<stop offset="0.645" stop-color="#EC38BC"/>
<stop offset="0.975" stop-color="#FDEFF9"/>
</linearGradient>
<linearGradient id="paint12_linear_15_1312" x1="10.711" y1="0" x2="10.711" y2="21.422" gradientUnits="userSpaceOnUse">
<stop stop-color="#03001E"/>
<stop offset="0.32" stop-color="#7303C0"/>
<stop offset="0.645" stop-color="#EC38BC"/>
<stop offset="0.975" stop-color="#FDEFF9"/>
</linearGradient>
<linearGradient id="paint13_linear_15_1312" x1="10.711" y1="0" x2="10.711" y2="21.422" gradientUnits="userSpaceOnUse">
<stop stop-color="#03001E"/>
<stop offset="0.32" stop-color="#7303C0"/>
<stop offset="0.645" stop-color="#EC38BC"/>
<stop offset="0.975" stop-color="#FDEFF9"/>
</linearGradient>
<linearGradient id="paint14_linear_15_1312" x1="10.711" y1="0" x2="10.711" y2="21.422" gradientUnits="userSpaceOnUse">
<stop stop-color="#03001E"/>
<stop offset="0.32" stop-color="#7303C0"/>
<stop offset="0.645" stop-color="#EC38BC"/>
<stop offset="0.975" stop-color="#FDEFF9"/>
</linearGradient>
<linearGradient id="paint15_linear_15_1312" x1="12.2889" y1="8.00073" x2="12.2889" y2="29.4228" gradientUnits="userSpaceOnUse">
<stop stop-color="#03001E"/>
<stop offset="0.32" stop-color="#7303C0"/>
<stop offset="0.645" stop-color="#EC38BC"/>
<stop offset="0.975" stop-color="#FDEFF9"/>
</linearGradient>
<linearGradient id="paint16_linear_15_1312" x1="12.2889" y1="8.00073" x2="12.2889" y2="29.4228" gradientUnits="userSpaceOnUse">
<stop stop-color="#03001E"/>
<stop offset="0.32" stop-color="#7303C0"/>
<stop offset="0.645" stop-color="#EC38BC"/>
<stop offset="0.975" stop-color="#FDEFF9"/>
</linearGradient>
<linearGradient id="paint17_linear_15_1312" x1="12.2889" y1="8.00073" x2="12.2889" y2="29.4228" gradientUnits="userSpaceOnUse">
<stop stop-color="#03001E"/>
<stop offset="0.32" stop-color="#7303C0"/>
<stop offset="0.645" stop-color="#EC38BC"/>
<stop offset="0.975" stop-color="#FDEFF9"/>
</linearGradient>
<linearGradient id="paint18_linear_15_1312" x1="12.2889" y1="8.00073" x2="12.2889" y2="29.4228" gradientUnits="userSpaceOnUse">
<stop stop-color="#03001E"/>
<stop offset="0.32" stop-color="#7303C0"/>
<stop offset="0.645" stop-color="#EC38BC"/>
<stop offset="0.975" stop-color="#FDEFF9"/>
</linearGradient>
<linearGradient id="paint19_linear_15_1312" x1="12.2889" y1="8.00073" x2="12.2889" y2="29.4228" gradientUnits="userSpaceOnUse">
<stop stop-color="#03001E"/>
<stop offset="0.32" stop-color="#7303C0"/>
<stop offset="0.645" stop-color="#EC38BC"/>
<stop offset="0.975" stop-color="#FDEFF9"/>
</linearGradient>
<linearGradient id="paint20_linear_15_1312" x1="12.2889" y1="8.00073" x2="12.2889" y2="29.4228" gradientUnits="userSpaceOnUse">
<stop stop-color="#03001E"/>
<stop offset="0.32" stop-color="#7303C0"/>
<stop offset="0.645" stop-color="#EC38BC"/>
<stop offset="0.975" stop-color="#FDEFF9"/>
</linearGradient>
<linearGradient id="paint21_linear_15_1312" x1="12.2889" y1="8.00073" x2="12.2889" y2="29.4228" gradientUnits="userSpaceOnUse">
<stop stop-color="#03001E"/>
<stop offset="0.32" stop-color="#7303C0"/>
<stop offset="0.645" stop-color="#EC38BC"/>
<stop offset="0.975" stop-color="#FDEFF9"/>
</linearGradient>
<linearGradient id="paint22_linear_15_1312" x1="12.2889" y1="8.00073" x2="12.2889" y2="29.4228" gradientUnits="userSpaceOnUse">
<stop stop-color="#03001E"/>
<stop offset="0.32" stop-color="#7303C0"/>
<stop offset="0.645" stop-color="#EC38BC"/>
<stop offset="0.975" stop-color="#FDEFF9"/>
</linearGradient>
<linearGradient id="paint23_linear_15_1312" x1="12.2889" y1="8.00073" x2="12.2889" y2="29.4228" gradientUnits="userSpaceOnUse">
<stop stop-color="#03001E"/>
<stop offset="0.32" stop-color="#7303C0"/>
<stop offset="0.645" stop-color="#EC38BC"/>
<stop offset="0.975" stop-color="#FDEFF9"/>
</linearGradient>
<linearGradient id="paint24_linear_15_1312" x1="12.2889" y1="8.00073" x2="12.2889" y2="29.4228" gradientUnits="userSpaceOnUse">
<stop stop-color="#03001E"/>
<stop offset="0.32" stop-color="#7303C0"/>
<stop offset="0.645" stop-color="#EC38BC"/>
<stop offset="0.975" stop-color="#FDEFF9"/>
</linearGradient>
<linearGradient id="paint25_linear_15_1312" x1="12.2889" y1="8.00073" x2="12.2889" y2="29.4228" gradientUnits="userSpaceOnUse">
<stop stop-color="#03001E"/>
<stop offset="0.32" stop-color="#7303C0"/>
<stop offset="0.645" stop-color="#EC38BC"/>
<stop offset="0.975" stop-color="#FDEFF9"/>
</linearGradient>
<linearGradient id="paint26_linear_15_1312" x1="12.2889" y1="8.00073" x2="12.2889" y2="29.4228" gradientUnits="userSpaceOnUse">
<stop stop-color="#03001E"/>
<stop offset="0.32" stop-color="#7303C0"/>
<stop offset="0.645" stop-color="#EC38BC"/>
<stop offset="0.975" stop-color="#FDEFF9"/>
</linearGradient>
<linearGradient id="paint27_linear_15_1312" x1="12.2889" y1="8.00073" x2="12.2889" y2="29.4228" gradientUnits="userSpaceOnUse">
<stop stop-color="#03001E"/>
<stop offset="0.32" stop-color="#7303C0"/>
<stop offset="0.645" stop-color="#EC38BC"/>
<stop offset="0.975" stop-color="#FDEFF9"/>
</linearGradient>
<linearGradient id="paint28_linear_15_1312" x1="12.2889" y1="8.00073" x2="12.2889" y2="29.4228" gradientUnits="userSpaceOnUse">
<stop stop-color="#03001E"/>
<stop offset="0.32" stop-color="#7303C0"/>
<stop offset="0.645" stop-color="#EC38BC"/>
<stop offset="0.975" stop-color="#FDEFF9"/>
</linearGradient>
<linearGradient id="paint29_linear_15_1312" x1="12.2889" y1="8.00073" x2="12.2889" y2="29.4228" gradientUnits="userSpaceOnUse">
<stop stop-color="#03001E"/>
<stop offset="0.32" stop-color="#7303C0"/>
<stop offset="0.645" stop-color="#EC38BC"/>
<stop offset="0.975" stop-color="#FDEFF9"/>
</linearGradient>
<linearGradient id="paint30_linear_15_1312" x1="31" y1="15" x2="113" y2="15" gradientUnits="userSpaceOnUse">
<stop stop-color="white"/>
<stop offset="1" stop-color="#868585"/>
</linearGradient>
</defs>
</svg>
